<svg width="24" height="24" viewBox="0 0 24 24" fill="none" xmlns="http://www.w3.org/2000/svg">
    <path d="M10.5 5.75H9.5C9.22386 5.75 9 5.97386 9 6.25V7.25C9 7.52614 9.22386 7.75 9.5 7.75H10.5C10.7761 7.75 11 7.52614 11 7.25V6.25C11 5.97386 10.7761 5.75 10.5 5.75Z" fill="#FF9500"/>
    <path d="M14.5 5.75H13.5C13.2239 5.75 13 5.97386 13 6.25V7.25C13 7.52614 13.2239 7.75 13.5 7.75H14.5C14.7761 7.75 15 7.52614 15 7.25V6.25C15 5.97386 14.7761 5.75 14.5 5.75Z" fill="#FF9500"/>
    <path d="M10.5 9.25H9.5C9.22386 9.25 9 9.47386 9 9.75V10.75C9 11.0261 9.22386 11.25 9.5 11.25H10.5C10.7761 11.25 11 11.0261 11 10.75V9.75C11 9.47386 10.7761 9.25 10.5 9.25Z" fill="#FF9500"/>
    <path d="M14.5 9.25H13.5C13.2239 9.25 13 9.47386 13 9.75V10.75C13 11.0261 13.2239 11.25 13.5 11.25H14.5C14.7761 11.25 15 11.0261 15 10.75V9.75C15 9.47386 14.7761 9.25 14.5 9.25Z" fill="#FF9500"/>
    <path d="M10.5 12.75H9.5C9.22386 12.75 9 12.9739 9 13.25V14.25C9 14.5261 9.22386 14.75 9.5 14.75H10.5C10.7761 14.75 11 14.5261 11 14.25V13.25C11 12.9739 10.7761 12.75 10.5 12.75Z" fill="#FF9500"/>
    <path d="M14.5 12.75H13.5C13.2239 12.75 13 12.9739 13 13.25V14.25C13 14.5261 13.2239 14.75 13.5 14.75H14.5C14.7761 14.75 15 14.5261 15 14.25V13.25C15 12.9739 14.7761 12.75 14.5 12.75Z" fill="#FF9500"/>
    <path d="M18.25 19H17.75V3.75C17.7474 3.55189 17.6676 3.36263 17.5275 3.22253C17.3874 3.08244 17.1981 3.00259 17 3H7C6.80189 3.00259 6.61263 3.08244 6.47253 3.22253C6.33244 3.36263 6.25259 3.55189 6.25 3.75V19H5.75C5.55109 19 5.36032 19.079 5.21967 19.2197C5.07902 19.3603 5 19.5511 5 19.75C5 19.9489 5.07902 20.1397 5.21967 20.2803C5.36032 20.421 5.55109 20.5 5.75 20.5H18.25C18.4489 20.5 18.6397 20.421 18.7803 20.2803C18.921 20.1397 19 19.9489 19 19.75C19 19.5511 18.921 19.3603 18.7803 19.2197C18.6397 19.079 18.4489 19 18.25 19ZM16.25 19H11V16.75C11 16.6174 10.9473 16.4902 10.8536 16.3964C10.7598 16.3027 10.6326 16.25 10.5 16.25H9.5C9.36739 16.25 9.24021 16.3027 9.14645 16.3964C9.05268 16.4902 9 16.6174 9 16.75V19H7.75V4.5H16.25V19Z" fill="#FF9500"/>
</svg>
