<svg width="100" height="100" viewBox="0 0 100 100" fill="none" xmlns="http://www.w3.org/2000/svg">
    <path d="M91.6666 29.1667H54.1666V8.33332C54.1666 7.22825 53.7276 6.16845 52.9462 5.38704C52.1648 4.60564 51.105 4.16666 50 4.16666H8.33329C7.22822 4.16666 6.16842 4.60564 5.38701 5.38704C4.60561 6.16845 4.16663 7.22825 4.16663 8.33332V91.6667C4.16663 92.7717 4.60561 93.8315 5.38701 94.6129C6.16842 95.3943 7.22822 95.8333 8.33329 95.8333H91.6666C92.7717 95.8333 93.8315 95.3943 94.6129 94.6129C95.3943 93.8315 95.8333 92.7717 95.8333 91.6667V33.3333C95.8333 32.2283 95.3943 31.1684 94.6129 30.387C93.8315 29.6056 92.7717 29.1667 91.6666 29.1667ZM45.8333 54.1667H12.5V45.8333H45.8333V54.1667ZM45.8333 33.3333V37.5H12.5V29.1667H45.8333V33.3333ZM12.5 62.5H45.8333V70.8333H12.5V62.5ZM45.8333 12.5V20.8333H12.5V12.5H45.8333ZM12.5 79.1667H45.8333V87.5H12.5V79.1667ZM87.5 87.5H54.1666V37.5H87.5V87.5ZM66.6666 66.6667H58.3333V58.3333H66.6666V66.6667ZM66.6666 83.3333H58.3333V75H66.6666V83.3333ZM83.3333 66.6667H75V58.3333H83.3333V66.6667ZM66.6666 50H58.3333V41.6667H66.6666V50ZM83.3333 50H75V41.6667H83.3333V50ZM83.3333 83.3333H75V75H83.3333V83.3333Z" fill="#B5B5B5"/>
</svg>
