<svg width="32" height="32" viewBox="0 0 32 32" fill="none" xmlns="http://www.w3.org/2000/svg">
    <path d="M31.9831 16.2993C31.9831 14.9883 31.8742 14.0316 31.6386 13.0395H16.3187V18.9568H25.3112C25.1299 20.4273 24.1509 22.6419 21.9753 24.13L21.9448 24.3281L26.7886 27.9951L27.1242 28.0278C30.2063 25.2463 31.9831 21.1537 31.9831 16.2993Z" fill="#4285F4"/>
    <path d="M16.3187 31.8901C20.7242 31.8901 24.4227 30.4727 27.1242 28.0279L21.9752 24.1301C20.5974 25.0691 18.7481 25.7246 16.3187 25.7246C12.0038 25.7246 8.34152 22.9432 7.03603 19.0986L6.84468 19.1145L1.80795 22.9236L1.74208 23.1026C4.4253 28.3112 9.93686 31.8901 16.3187 31.8901Z" fill="#34A853"/>
    <path d="M7.03602 19.0986C6.69155 18.1065 6.4922 17.0434 6.4922 15.945C6.4922 14.8465 6.69155 13.7835 7.01789 12.7914L7.00877 12.5801L1.90892 8.70984L1.74206 8.7874C0.636177 10.9489 0.00161743 13.3761 0.00161743 15.945C0.00161743 18.5139 0.636177 20.941 1.74206 23.1025L7.03602 19.0986Z" fill="#FBBC05"/>
    <path d="M16.3187 6.16537C19.3826 6.16537 21.4494 7.45868 22.6279 8.53948L27.233 4.14571C24.4048 1.57679 20.7243 0 16.3187 0C9.93687 0 4.42531 3.57875 1.74208 8.78741L7.01792 12.7914C8.34153 8.94693 12.0038 6.16537 16.3187 6.16537Z" fill="#EB4335"/>
</svg>