<svg width="24" height="24" viewBox="0 0 24 24" fill="none" xmlns="http://www.w3.org/2000/svg">
    <path d="M7.22998 18.25C6.17022 18.2535 5.1524 17.8363 4.39998 17.09C3.63611 16.2785 3.22338 15.1983 3.25147 14.0842C3.27955 12.97 3.74619 11.912 4.54998 11.14L8.30998 7.35C9.12726 6.50634 10.2456 6.0209 11.42 6C11.9475 6.00352 12.4692 6.11135 12.9549 6.3173C13.4406 6.52325 13.8807 6.82324 14.25 7.2C15.0243 8.01629 15.4433 9.10627 15.4152 10.231C15.387 11.3557 14.9141 12.4234 14.1 13.2L12.84 14.46C12.7713 14.5337 12.6885 14.5928 12.5965 14.6338C12.5045 14.6748 12.4052 14.6968 12.3045 14.6986C12.2038 14.7004 12.1038 14.6818 12.0104 14.6441C11.917 14.6064 11.8322 14.5503 11.761 14.479C11.6897 14.4078 11.6336 14.323 11.5959 14.2296C11.5582 14.1362 11.5396 14.0362 11.5414 13.9355C11.5432 13.8348 11.5652 13.7355 11.6062 13.6435C11.6472 13.5515 11.7063 13.4687 11.78 13.4L13 12.1C13.5247 11.6076 13.8338 10.9279 13.86 10.2088C13.8862 9.4897 13.6275 8.78933 13.14 8.26C12.6071 7.7953 11.9167 7.55197 11.2102 7.57986C10.5037 7.60774 9.83458 7.90474 9.33998 8.41L5.60998 12.19C5.0951 12.6812 4.79155 13.3535 4.76356 14.0646C4.73556 14.7757 4.98532 15.4698 5.45998 16C5.72085 16.2578 6.03526 16.4551 6.3809 16.5778C6.72654 16.7005 7.09494 16.7456 7.45998 16.71C7.55724 16.7004 7.65544 16.7101 7.74892 16.7386C7.8424 16.7671 7.92931 16.8139 8.00462 16.8762C8.07993 16.9385 8.14215 17.0151 8.1877 17.1015C8.23324 17.188 8.26121 17.2827 8.26998 17.38C8.28953 17.5775 8.23 17.7747 8.10441 17.9284C7.97882 18.0821 7.79743 18.1798 7.59998 18.2L7.22998 18.25Z" fill="#FF9500"/>
    <path d="M12.58 17.9999C12.0525 17.9964 11.5308 17.8886 11.0451 17.6826C10.5594 17.4767 10.1193 17.1767 9.74997 16.7999C8.97571 15.9836 8.55671 14.8936 8.58483 13.7689C8.61294 12.6442 9.08589 11.5765 9.89997 10.7999L11.16 9.53988C11.2287 9.4662 11.3115 9.40709 11.4035 9.3661C11.4955 9.32511 11.5948 9.30307 11.6955 9.30129C11.7962 9.29952 11.8962 9.31804 11.9896 9.35576C12.083 9.39348 12.1678 9.44963 12.239 9.52085C12.3103 9.59206 12.3664 9.6769 12.4041 9.77029C12.4418 9.86367 12.4604 9.9637 12.4586 10.0644C12.4568 10.1651 12.4348 10.2644 12.3938 10.3564C12.3528 10.4484 12.2937 10.5312 12.22 10.5999L11 11.8999C10.4753 12.3923 10.1662 13.072 10.14 13.7911C10.1138 14.5102 10.3726 15.2106 10.86 15.7399C11.3929 16.2046 12.0833 16.4479 12.7898 16.42C13.4963 16.3922 14.1654 16.0952 14.66 15.5899L18.43 11.8099C18.9393 11.3133 19.2355 10.6382 19.256 9.92715C19.2766 9.21614 19.0198 8.52501 18.54 7.99988C18.2791 7.74208 17.9647 7.54483 17.6191 7.42212C17.2734 7.29942 16.905 7.25428 16.54 7.28988C16.4427 7.29952 16.3445 7.2898 16.2511 7.26128C16.1576 7.23275 16.0707 7.186 15.9954 7.1237C15.9201 7.06141 15.8578 6.98481 15.8123 6.89834C15.7667 6.81187 15.7388 6.71723 15.73 6.61988C15.7104 6.42236 15.77 6.22515 15.8956 6.07144C16.0212 5.91774 16.2025 5.82009 16.4 5.79988C16.9821 5.73955 17.5704 5.80767 18.1233 5.99947C18.6762 6.19126 19.1803 6.50204 19.6 6.90988C20.3639 7.72141 20.7766 8.8016 20.7485 9.91573C20.7204 11.0299 20.2538 12.0879 19.45 12.8599L15.69 16.6499C14.8727 17.4936 13.7544 17.979 12.58 17.9999Z" fill="#FF9500"/>
</svg>
